<svg id="more_2_fill" xmlns="http://www.w3.org/2000/svg" width="19" height="19" viewBox="0 0 19 19">
  <path id="Контур_724" data-name="Контур 724" d="M19,0V19H0V0ZM9.969,18.413l-.009,0-.056.028-.016,0-.011,0-.056-.028a.016.016,0,0,0-.019,0l0,.008-.013.339,0,.016.008.01.082.059.012,0,.009,0,.082-.059.01-.013,0-.013-.013-.338a.017.017,0,0,0-.013-.014m.21-.089-.01,0-.146.074-.008.008,0,.009.014.34,0,.01.006.006.159.074a.02.02,0,0,0,.023-.006l0-.011-.027-.486a.021.021,0,0,0-.016-.017m-.566,0a.018.018,0,0,0-.021,0l0,.011-.027.486a.02.02,0,0,0,.013.019l.012,0,.159-.074.008-.006,0-.009.013-.34,0-.01L9.759,18.4Z" fill="none"/>
  <path id="Контур_725" data-name="Контур 725" d="M11.583,14.083A1.583,1.583,0,1,1,10,15.667a1.583,1.583,0,0,1,1.583-1.583m0-5.542A1.583,1.583,0,1,1,10,10.125a1.583,1.583,0,0,1,1.583-1.583m0-5.542A1.583,1.583,0,1,1,10,4.583,1.583,1.583,0,0,1,11.583,3" transform="translate(-2.083 -0.625)" fill="#fff"/>
</svg>
